<?xml version="1.0" encoding="UTF-8" standalone="no"?>
<svg
   version="1.1"
   viewBox="0.0 0.0 960.0 720.0"
   fill="none"
   stroke="none"
   stroke-linecap="square"
   stroke-miterlimit="10"
   id="svg33"
   sodipodi:docname="Logo ElectricidadG.svg"
   inkscape:version="1.3.2 (091e20ef0f, 2023-11-25, custom)"
   inkscape:export-filename="Logo Electricidad.png"
   inkscape:export-xdpi="220"
   inkscape:export-ydpi="220"
   xmlns:inkscape="http://www.inkscape.org/namespaces/inkscape"
   xmlns:sodipodi="http://sodipodi.sourceforge.net/DTD/sodipodi-0.dtd"
   xmlns="http://www.w3.org/2000/svg"
   xmlns:svg="http://www.w3.org/2000/svg">
  <defs
     id="defs33" />
  <sodipodi:namedview
     id="namedview33"
     pagecolor="#ffffff"
     bordercolor="#000000"
     borderopacity="0.25"
     inkscape:showpageshadow="2"
     inkscape:pageopacity="0.0"
     inkscape:pagecheckerboard="0"
     inkscape:deskcolor="#d1d1d1"
     inkscape:zoom="2.2784552"
     inkscape:cx="256.31401"
     inkscape:cy="409.48797"
     inkscape:window-width="2560"
     inkscape:window-height="1364"
     inkscape:window-x="0"
     inkscape:window-y="0"
     inkscape:window-maximized="1"
     inkscape:current-layer="g33" />
  <clipPath
     id="p.0">
    <path
       d="m0 0l960.0 0l0 720.0l-960.0 0l0 -720.0z"
       clip-rule="nonzero"
       id="path1" />
  </clipPath>
  <g
     clip-path="url(#p.0)"
     id="g33"
     transform="translate(1.7555755,0.10972347)">
    <path
       fill="#000000"
       fill-opacity="0"
       d="M 0,0 H 960 V 720 H 0 Z"
       fill-rule="evenodd"
       id="path2" />
    <path
       fill="#ffd966"
       d="m 154.53421,142.94862 h 609.6455 v 385.8772 h -609.6455 z"
       fill-rule="evenodd"
       id="path3" />
    <path
       fill="#000000"
       fill-opacity="0"
       d="M 459.59308,189.89471 605.34802,335.54275 459.46423,481.31951 313.70932,335.67147 Z"
       fill-rule="evenodd"
       id="path4" />
    <path
       stroke="#000000"
       stroke-width="1"
       stroke-linejoin="round"
       stroke-linecap="butt"
       d="M 459.59308,189.89471 605.34802,335.54275 459.46423,481.31951 313.70932,335.67147 Z"
       fill-rule="evenodd"
       id="path5"
       style="stroke-width:2.5;stroke-dasharray:none" />
    <path
       fill="#ffffff"
       d="m 389.35748,411.64722 h -25.76694 l 25.76694,-25.74805 z"
       fill-rule="evenodd"
       id="path6"
       sodipodi:insensitive="true" />
    <path
       stroke="#000000"
       stroke-width="1"
       stroke-linejoin="round"
       stroke-linecap="butt"
       d="m 389.35748,411.64722 h -25.76694 l 25.76694,-25.74805 z"
       fill-rule="evenodd"
       id="path7"
       style="stroke-width:2.15;stroke-dasharray:none;stroke-linejoin:round;stroke-linecap:butt" />
    <path
       stroke="#000000"
       stroke-width="1"
       stroke-linejoin="round"
       stroke-linecap="butt"
       d="m 403.4577,399.00565 -26.4111,26.52048"
       fill-rule="evenodd"
       id="path9"
       style="stroke-width:2.15;stroke-dasharray:none;stroke-linejoin:round;stroke-linecap:butt" />
    <path
       fill="#ffffff"
       d="M 540.7769,399.88538 V 425.6334 L 515.00993,399.88538 Z"
       fill-rule="evenodd"
       id="path10"
       sodipodi:insensitive="true" />
    <path
       stroke="#000000"
       stroke-width="1"
       stroke-linejoin="round"
       stroke-linecap="butt"
       d="M 540.7769,399.88538 V 425.6334 L 515.00993,399.88538 Z"
       fill-rule="evenodd"
       id="path11"
       style="stroke-width:2.15;stroke-dasharray:none;stroke-linejoin:round;stroke-linecap:butt" />
    <path
       stroke="#000000"
       stroke-width="1"
       stroke-linejoin="round"
       stroke-linecap="butt"
       d="m 528.12604,385.79547 26.53998,26.39172"
       fill-rule="evenodd"
       id="path13"
       style="stroke-width:2.15;stroke-dasharray:none;stroke-linejoin:round;stroke-linecap:butt" />
    <path
       fill="#ffffff"
       d="m 539.78265,269.90552 h -25.76691 l 25.76691,-25.74803 z"
       fill-rule="evenodd"
       id="path14"
       sodipodi:insensitive="true" />
    <path
       stroke="#000000"
       stroke-width="1"
       stroke-linejoin="round"
       stroke-linecap="butt"
       d="m 539.78265,269.90552 h -25.76691 l 25.76691,-25.74803 z"
       fill-rule="evenodd"
       id="path15"
       style="stroke-width:2.15;stroke-dasharray:none;stroke-linejoin:round;stroke-linecap:butt" />
    <path
       stroke="#000000"
       stroke-width="1"
       stroke-linejoin="round"
       stroke-linecap="butt"
       d="M 553.88293,257.26395 527.4718,283.78443"
       fill-rule="evenodd"
       id="path17"
       style="stroke-width:2.15;stroke-dasharray:none;stroke-linejoin:round;stroke-linecap:butt" />
    <path
       fill="#ffffff"
       d="m 391.88342,257.3128 v 25.74802 L 366.11648,257.3128 Z"
       fill-rule="evenodd"
       id="path18"
       sodipodi:insensitive="true" />
    <path
       stroke="#000000"
       stroke-width="1"
       stroke-linejoin="round"
       stroke-linecap="butt"
       d="m 391.88342,257.3128 v 25.74802 L 366.11648,257.3128 Z"
       fill-rule="evenodd"
       id="path19"
       style="stroke-width:2.15;stroke-dasharray:none;stroke-linejoin:round;stroke-linecap:butt" />
    <path
       fill="#000000"
       fill-opacity="0"
       d="m 379.23257,243.2229 26.53992,26.39172"
       fill-rule="evenodd"
       id="path20"
       style="stroke-width:1.551;stroke-dasharray:none" />
    <path
       stroke="#000000"
       stroke-width="1"
       stroke-linejoin="round"
       stroke-linecap="butt"
       d="m 379.23257,243.2229 26.53992,26.39172"
       fill-rule="evenodd"
       id="path21"
       style="stroke-width:2.15;stroke-dasharray:none;stroke-linejoin:round;stroke-linecap:butt" />
    <path
       stroke="#000000"
       stroke-width="1"
       stroke-linejoin="round"
       stroke-linecap="butt"
       d="m 604.91267,335.45506 80.12639,0.008"
       fill-rule="evenodd"
       id="path23"
       style="stroke-width:2.5;stroke-dasharray:none" />
    <path
       fill="#000000"
       stroke="#000000"
       stroke-width="1"
       stroke-linecap="butt"
       d="m 603.37936,335.4401 c -0.007,-0.90848 0.72467,-1.65021 1.63318,-1.65671 0.90845,-0.007 1.65021,0.72467 1.65668,1.63318 0.007,0.90848 -0.72467,1.65021 -1.63318,1.65671 -0.90845,0.007 -1.65021,-0.72467 -1.65668,-1.63318 z"
       fill-rule="nonzero"
       id="path24"
       style="stroke-width:3.86691707;stroke-dasharray:none" />
    <path
       stroke="#000000"
       stroke-width="1"
       stroke-linejoin="round"
       stroke-linecap="butt"
       d="m 314.02613,335.64245 -79.61082,-0.0338"
       fill-rule="evenodd"
       id="path26"
       style="stroke-width:2.5;stroke-dasharray:none" />
    <path
       fill="#000000"
       stroke="#000000"
       stroke-width="1"
       stroke-linecap="butt"
       d="m 315.78619,335.51794 c 0.006,0.90851 -0.72549,1.6499 -1.63397,1.65598 -0.90848,0.006 -1.64987,-0.72547 -1.65598,-1.63398 -0.006,-0.90847 0.7255,-1.64987 1.63397,-1.65594 0.90848,-0.006 1.64991,0.72546 1.65598,1.63394 z"
       fill-rule="nonzero"
       id="path27"
       style="stroke-width:3.71224216;stroke-dasharray:none" />
    <path
       stroke="#000000"
       stroke-width="1"
       stroke-linejoin="round"
       stroke-linecap="butt"
       d="m 459.44929,480.68382 -0.001,32.34472"
       fill-rule="evenodd"
       id="path29"
       style="stroke-width:2.5;stroke-dasharray:none" />
    <path
       fill="#000000"
       stroke="#000000"
       stroke-width="1"
       stroke-linecap="butt"
       d="m 459.41427,478.87597 c 0.90848,0.009 1.63794,0.75211 1.6293,1.66055 -0.009,0.90848 -0.7521,1.63794 -1.66058,1.62931 -0.90845,-0.009 -1.63791,-0.75211 -1.62927,-1.66059 0.009,-0.90844 0.7521,-1.63791 1.66055,-1.62927 z"
       fill-rule="nonzero"
       id="path30"
       style="stroke-width:3.86691707;stroke-dasharray:none"
       inkscape:label="path30" />
    <path
       stroke="#000000"
       stroke-width="1"
       stroke-linejoin="round"
       stroke-linecap="butt"
       d="m 459.53615,190.42502 0.0151,-28.91159"
       fill-rule="evenodd"
       id="path32"
       style="stroke-width:2.5;stroke-dasharray:none" />
    <path
       fill="#000000"
       stroke="#000000"
       stroke-width="1"
       stroke-linecap="butt"
       d="m 459.51359,192.17807 c -0.90848,-0.007 -1.63913,-0.74944 -1.63199,-1.65791 0.007,-0.90848 0.74945,-1.63915 1.65793,-1.63199 0.90848,0.007 1.63913,0.74943 1.63199,1.65791 -0.007,0.90848 -0.74945,1.63915 -1.65793,1.63199 z"
       fill-rule="nonzero"
       id="path33"
       style="stroke-width:3.86691707;stroke-dasharray:none" />
  </g>
</svg>
